<?xml version="1.0" encoding="UTF-8"?>
<svg id="Layer_2" data-name="Layer 2" xmlns="http://www.w3.org/2000/svg" viewBox="0 0 71.88 93.75">
  <g id="Layer_1-2" data-name="Layer 1">
    <path d="m69.06,17.81l-15.16-15.16c-1.56-1.72-4.06-2.66-6.56-2.66H9.38C4.22,0,0,4.22,0,9.37v75c0,5.16,4.22,9.38,9.38,9.38h53.12c5.16,0,9.38-4.22,9.38-9.38V24.53c0-2.5-.94-5-2.81-6.72Zm-7.81.94h-8.12v-8.12l8.12,8.12Zm1.25,68.75H9.38c-1.72,0-3.12-1.41-3.12-3.12V9.37c0-1.72,1.41-3.12,3.12-3.12h37.5v12.5c0,3.44,2.81,6.25,6.25,6.25h12.5v59.38c0,1.72-1.41,3.12-3.12,3.12Z"/>
    <path d="m33.75,62.19l.47.47s.16.16.31.16.16.16.31.16.16,0,.31.16q.16,0,.31.16h1.25q.16,0,.31-.16.16,0,.31-.16c.16,0,.16-.16.31-.16s.16-.16.31-.16l9.84-9.84c1.25-1.25,1.25-3.12,0-4.38s-3.12-1.25-4.38,0l-4.38,4.06v-20.62c0-1.72-1.41-3.12-3.12-3.12s-3.12,1.41-3.12,3.12v20.62l-4.06-4.06c-1.25-1.25-3.12-1.25-4.38,0s-1.25,3.12,0,4.38l9.37,9.38Z"/>
    <path d="m53.13,53.75c-1.72,0-3.12,1.41-3.12,3.12v9.38h-28.12v-9.38c0-1.72-1.41-3.12-3.12-3.12s-3.12,1.41-3.12,3.12v9.38c0,3.44,2.81,6.25,6.25,6.25h28.12c3.44,0,6.25-2.81,6.25-6.25v-9.38c0-1.72-1.41-3.12-3.12-3.12Z"/>
  </g>
</svg>