<?xml version="1.0" encoding="UTF-8"?>
<svg id="Layer_2" data-name="Layer 2" xmlns="http://www.w3.org/2000/svg" viewBox="0 0 67 70.66">
  <g id="Layer_1-2" data-name="Layer 1">
    <path d="m7.11.88C5.94-.29,4.04-.29,2.87.88c-1.17,1.17-1.17,3.07,0,4.24l15.88,15.88H4.09c-2.26,0-4.09,1.83-4.09,4.09v23.81c0,2.26,1.83,4.09,4.09,4.09h17.91l21.38,16.79c2.69,2.11,6.62.2,6.62-3.22v-14.33l11.88,11.88c.59.59,1.35.88,2.12.88s1.54-.29,2.12-.88c1.17-1.17,1.17-3.07,0-4.24L7.11.88Z"/>
    <path d="m43.37,4.2l-13.96,10.97,20.58,20.58V7.42c0-3.42-3.94-5.33-6.62-3.22h0Z"/>
  </g>
</svg>