<?xml version="1.0" encoding="UTF-8"?>
<svg id="Layer_2" data-name="Layer 2" xmlns="http://www.w3.org/2000/svg" viewBox="0 0 68 62.35">
  <g id="Layer_1-2" data-name="Layer 1">
    <path d="m3.45,44.18h13.24c.06.06.11.12.17.17l22.54,17.53c1.46,1.14,3.6.1,3.6-1.76V2.23c0-1.85-2.13-2.9-3.6-1.76l-22.54,17.53c-.06.05-.11.11-.17.17H3.45c-1.9,0-3.45,1.54-3.45,3.45v19.11c0,1.9,1.54,3.45,3.45,3.45h0Z"/>
    <path d="m49.77,41.82c-.47.37-.77.91-.77,1.51v.34c0,1.54,1.76,2.42,2.99,1.49,4.35-3.27,7.01-8.44,7.01-13.98s-2.67-10.72-7.01-13.98c-1.23-.92-2.99-.04-2.99,1.49v.34c0,.6.3,1.14.77,1.51,3.24,2.53,5.23,6.45,5.23,10.64s-1.98,8.12-5.23,10.64h0Z"/>
    <path d="m49,53.95c0,1.34,1.36,2.23,2.6,1.72,9.8-4.04,16.4-13.68,16.4-24.48s-6.61-20.44-16.4-24.48c-1.24-.51-2.6.38-2.6,1.72v.29c0,.74.43,1.42,1.11,1.7,8.3,3.44,13.89,11.62,13.89,20.78s-5.59,17.34-13.89,20.78c-.68.28-1.11.97-1.11,1.7v.29-.02Z"/>
  </g>
</svg>